<?xml version="1.0" encoding="UTF-8"?>
<!DOCTYPE svg PUBLIC "-//W3C//DTD SVG 1.1//EN" "http://www.w3.org/Graphics/SVG/1.1/DTD/svg11.dtd">
<svg xmlns="http://www.w3.org/2000/svg" version="1.1" width="2481px" height="2641px" style="shape-rendering:geometricPrecision; text-rendering:geometricPrecision; image-rendering:optimizeQuality; fill-rule:evenodd; clip-rule:evenodd" xmlns:xlink="http://www.w3.org/1999/xlink">
<g><path style="opacity:0.998" fill="#fd9905" d="M 1055.5,138.5 C 1055.5,285.5 1055.5,432.5 1055.5,579.5C 1015.5,620.167 975.167,660.5 934.5,700.5C 934.5,532.833 934.5,365.167 934.5,197.5C 966.675,161.581 1007.01,141.914 1055.5,138.5 Z"/></g>
<g><path style="opacity:0.997" fill="#fd9204" d="M 1055.5,138.5 C 1090.2,136.509 1122.87,143.675 1153.5,160C 1155.75,161.277 1157.75,162.777 1159.5,164.5C 1159.5,268.167 1159.5,371.833 1159.5,475.5C 1125.17,510.5 1090.5,545.167 1055.5,579.5C 1055.5,432.5 1055.5,285.5 1055.5,138.5 Z"/></g>
<g><path style="opacity:0.991" fill="#fd8d03" d="M 1159.5,164.5 C 1199.23,188.773 1225.73,223.44 1239,268.5C 1253.92,329.79 1241.59,384.79 1202,433.5C 1187.97,447.702 1173.8,461.702 1159.5,475.5C 1159.5,371.833 1159.5,268.167 1159.5,164.5 Z"/></g>
<g><path style="opacity:0.999" fill="#fd9d05" d="M 934.5,197.5 C 934.5,365.167 934.5,532.833 934.5,700.5C 934.047,701.458 933.381,702.292 932.5,703C 933.416,703.278 934.082,703.778 934.5,704.5C 934.5,872.5 934.5,1040.5 934.5,1208.5C 916.833,1191.5 899.5,1174.17 882.5,1156.5C 882.5,854.167 882.5,551.833 882.5,249.5C 899.5,231.833 916.833,214.5 934.5,197.5 Z"/></g>
<g><path style="opacity:0.998" fill="#fea006" d="M 882.5,249.5 C 882.5,551.833 882.5,854.167 882.5,1156.5C 864.5,1139.17 846.833,1121.5 829.5,1103.5C 829.5,836.5 829.5,569.5 829.5,302.5C 846.833,284.5 864.5,266.833 882.5,249.5 Z"/></g>
<g><path style="opacity:0.998" fill="#fea507" d="M 829.5,302.5 C 829.5,569.5 829.5,836.5 829.5,1103.5C 794.833,1069.5 760.5,1035.17 726.5,1000.5C 726.5,802.167 726.5,603.833 726.5,405.5C 760.5,370.833 794.833,336.5 829.5,302.5 Z"/></g>
<g><path style="opacity:0.997" fill="#feab08" d="M 726.5,405.5 C 726.5,603.833 726.5,802.167 726.5,1000.5C 711.201,985.702 696.035,970.702 681,955.5C 661.632,975.035 642.132,994.368 622.5,1013.5C 622.5,845.5 622.5,677.5 622.5,509.5C 656.833,474.5 691.5,439.833 726.5,405.5 Z"/></g>
<g><path style="opacity:0.997" fill="#feb109" d="M 622.5,509.5 C 622.5,677.5 622.5,845.5 622.5,1013.5C 582.472,1054.53 541.805,1094.86 500.5,1134.5C 500.5,966.833 500.5,799.167 500.5,631.5C 540.833,590.5 581.5,549.833 622.5,509.5 Z"/></g>
<g><path style="opacity:0.998" fill="#feb809" d="M 500.5,631.5 C 500.5,799.167 500.5,966.833 500.5,1134.5C 466.167,1169.5 431.5,1204.17 396.5,1238.5C 396.5,1070.83 396.5,903.167 396.5,735.5C 430.833,700.5 465.5,665.833 500.5,631.5 Z"/></g>
<g><path style="opacity:0.997" fill="#fd9805" d="M 934.5,704.5 C 974.86,744.527 1015.19,784.527 1055.5,824.5C 1055.5,992.833 1055.5,1161.17 1055.5,1329.5C 1014.83,1289.5 974.5,1249.17 934.5,1208.5C 934.5,1040.5 934.5,872.5 934.5,704.5 Z"/></g>
<g><path style="opacity:0.998" fill="#febe0a" d="M 396.5,735.5 C 396.5,903.167 396.5,1070.83 396.5,1238.5C 367.876,1267.48 333.21,1284.81 292.5,1290.5C 292.5,1140.17 292.5,989.833 292.5,839.5C 326.833,804.5 361.5,769.833 396.5,735.5 Z"/></g>
<g><path style="opacity:0.997" fill="#fd9204" d="M 1055.5,824.5 C 1090.5,858.165 1125.17,892.165 1159.5,926.5C 1159.5,1094.5 1159.5,1262.5 1159.5,1430.5C 1124.81,1396.81 1090.14,1363.14 1055.5,1329.5C 1055.5,1161.17 1055.5,992.833 1055.5,824.5 Z"/></g>
<g><path style="opacity:0.997" fill="#ffc40b" d="M 292.5,839.5 C 292.5,989.833 292.5,1140.17 292.5,1290.5C 255.913,1294.29 221.246,1287.96 188.5,1271.5C 188.5,1162.17 188.5,1052.83 188.5,943.5C 222.833,908.5 257.5,873.833 292.5,839.5 Z"/></g>
<g><path style="opacity:0.997" fill="#fd8c03" d="M 1159.5,926.5 C 1194.19,960.861 1228.86,995.194 1263.5,1029.5C 1263.5,1196.83 1263.5,1364.17 1263.5,1531.5C 1228.81,1497.81 1194.14,1464.14 1159.5,1430.5C 1159.5,1262.5 1159.5,1094.5 1159.5,926.5 Z"/></g>
<g><path style="opacity:0.996" fill="#ffc80b" d="M 188.5,943.5 C 188.5,1052.83 188.5,1162.17 188.5,1271.5C 176.092,1265.31 164.759,1257.64 154.5,1248.5C 154.5,1158.17 154.5,1067.83 154.5,977.5C 165.5,965.833 176.833,954.5 188.5,943.5 Z"/></g>
<g><path style="opacity:0.988" fill="#ffca0c" d="M 154.5,977.5 C 154.5,1067.83 154.5,1158.17 154.5,1248.5C 103.648,1202.12 84.1483,1144.78 96,1076.5C 104.749,1036.98 124.249,1003.98 154.5,977.5 Z"/></g>
<g><path style="opacity:0.997" fill="#fd8602" d="M 1263.5,1029.5 C 1298.8,1063.14 1333.47,1097.47 1367.5,1132.5C 1367.5,1299.17 1367.5,1465.83 1367.5,1632.5C 1332.81,1598.81 1298.14,1565.14 1263.5,1531.5C 1263.5,1364.17 1263.5,1196.83 1263.5,1029.5 Z"/></g>
<g><path style="opacity:0.997" fill="#fc8001" d="M 1367.5,1132.5 C 1408.17,1171.83 1448.5,1211.5 1488.5,1251.5C 1488.5,1396.17 1488.5,1540.83 1488.5,1685.5C 1441.08,1683.49 1400.74,1665.82 1367.5,1632.5C 1367.5,1465.83 1367.5,1299.17 1367.5,1132.5 Z"/></g>
<g><path style="opacity:0.997" fill="#fc7900" d="M 1488.5,1251.5 C 1524.14,1285.47 1559.14,1320.14 1593.5,1355.5C 1593.5,1455.83 1593.5,1556.17 1593.5,1656.5C 1561.69,1677.32 1526.69,1686.99 1488.5,1685.5C 1488.5,1540.83 1488.5,1396.17 1488.5,1251.5 Z"/></g>
<g><path style="opacity:0.998" fill="#398cfa" d="M 639.5,1260.5 C 639.5,1414.5 639.5,1568.5 639.5,1722.5C 633.833,1717.5 628.5,1712.17 623.5,1706.5C 623.5,1558.17 623.5,1409.83 623.5,1261.5C 628.822,1261.02 634.155,1260.69 639.5,1260.5 Z"/></g>
<g><path style="opacity:0.998" fill="#398af9" d="M 639.5,1260.5 C 651.408,1260.37 663.075,1261.37 674.5,1263.5C 674.5,1428.17 674.5,1592.83 674.5,1757.5C 662.5,1746.17 650.833,1734.5 639.5,1722.5C 639.5,1568.5 639.5,1414.5 639.5,1260.5 Z"/></g>
<g><path style="opacity:0.997" fill="#388dfa" d="M 623.5,1261.5 C 623.5,1409.83 623.5,1558.17 623.5,1706.5C 607.167,1690.83 591.167,1674.83 575.5,1658.5C 575.5,1529.83 575.5,1401.17 575.5,1272.5C 591.004,1266.8 607.004,1263.13 623.5,1261.5 Z"/></g>
<g><path style="opacity:0.998" fill="#5041d2" d="M 2214.5,1262.5 C 2214.5,1410.5 2214.5,1558.5 2214.5,1706.5C 2177.83,1743.83 2140.83,1780.83 2103.5,1817.5C 2103.5,1639.5 2103.5,1461.5 2103.5,1283.5C 2138.4,1265.59 2175.4,1258.59 2214.5,1262.5 Z"/></g>
<g><path style="opacity:0.998" fill="#513ed0" d="M 2214.5,1262.5 C 2219.85,1263.07 2225.18,1263.74 2230.5,1264.5C 2230.5,1406.5 2230.5,1548.5 2230.5,1690.5C 2225.5,1696.17 2220.17,1701.5 2214.5,1706.5C 2214.5,1558.5 2214.5,1410.5 2214.5,1262.5 Z"/></g>
<g><path style="opacity:0.998" fill="#3a86f6" d="M 674.5,1263.5 C 713.772,1269.3 747.439,1285.97 775.5,1313.5C 775.5,1495.17 775.5,1676.83 775.5,1858.5C 741.5,1825.17 707.833,1791.5 674.5,1757.5C 674.5,1592.83 674.5,1428.17 674.5,1263.5 Z"/></g>
<g><path style="opacity:0.997" fill="#523ccf" d="M 2230.5,1264.5 C 2246.92,1267.86 2262.59,1273.2 2277.5,1280.5C 2277.5,1401.5 2277.5,1522.5 2277.5,1643.5C 2262.17,1659.5 2246.5,1675.17 2230.5,1690.5C 2230.5,1548.5 2230.5,1406.5 2230.5,1264.5 Z"/></g>
<g><path style="opacity:0.995" fill="#3692fc" d="M 575.5,1272.5 C 575.5,1401.17 575.5,1529.83 575.5,1658.5C 549.201,1632.7 523.035,1606.7 497,1580.5C 488.497,1570.17 480.997,1559.17 474.5,1547.5C 474.5,1484.83 474.5,1422.17 474.5,1359.5C 497.514,1318.16 531.18,1289.16 575.5,1272.5 Z"/></g>
<g><path style="opacity:0.996" fill="#5239cd" d="M 2277.5,1280.5 C 2291.51,1286.53 2304.17,1294.53 2315.5,1304.5C 2315.5,1404.83 2315.5,1505.17 2315.5,1605.5C 2303.17,1618.5 2290.5,1631.17 2277.5,1643.5C 2277.5,1522.5 2277.5,1401.5 2277.5,1280.5 Z"/></g>
<g><path style="opacity:0.998" fill="#5044d5" d="M 2103.5,1283.5 C 2103.5,1461.5 2103.5,1639.5 2103.5,1817.5C 2102.83,1818.83 2101.83,1819.83 2100.5,1820.5C 2100.5,1642.17 2100.5,1463.83 2100.5,1285.5C 2101.5,1284.83 2102.5,1284.17 2103.5,1283.5 Z"/></g>
<g><path style="opacity:0.998" fill="#4e47d6" d="M 2100.5,1285.5 C 2100.5,1463.83 2100.5,1642.17 2100.5,1820.5C 2054.5,1867.17 2008.17,1913.5 1961.5,1959.5C 1961.5,1777.83 1961.5,1596.17 1961.5,1414.5C 1996.63,1378.87 2031.97,1343.37 2067.5,1308C 2077.83,1299.5 2088.83,1292 2100.5,1285.5 Z"/></g>
<g><path style="opacity:0.99" fill="#5336cb" d="M 2315.5,1304.5 C 2367.84,1348.89 2391.34,1405.56 2386,1474.5C 2379.48,1527.47 2355.98,1571.14 2315.5,1605.5C 2315.5,1505.17 2315.5,1404.83 2315.5,1304.5 Z"/></g>
<g><path style="opacity:0.998" fill="#3c81f4" d="M 775.5,1313.5 C 798.833,1336.17 821.833,1359.17 844.5,1382.5C 844.5,1564.17 844.5,1745.83 844.5,1927.5C 821.167,1904.83 798.167,1881.83 775.5,1858.5C 775.5,1676.83 775.5,1495.17 775.5,1313.5 Z"/></g>
<g><path style="opacity:0.989" fill="#fc7400" d="M 1593.5,1355.5 C 1615.39,1373.22 1633.89,1393.89 1649,1417.5C 1680.81,1476.16 1681.47,1535.16 1651,1594.5C 1636.52,1619.48 1617.35,1640.15 1593.5,1656.5C 1593.5,1556.17 1593.5,1455.83 1593.5,1355.5 Z"/></g>
<g><path style="opacity:0.974" fill="#3596fe" d="M 474.5,1359.5 C 474.5,1422.17 474.5,1484.83 474.5,1547.5C 448.8,1499.88 443.3,1449.88 458,1397.5C 462.175,1384.16 467.675,1371.49 474.5,1359.5 Z"/></g>
<g><path style="opacity:0.998" fill="#3d7df2" d="M 844.5,1382.5 C 860.833,1398.17 876.833,1414.17 892.5,1430.5C 892.5,1612.17 892.5,1793.83 892.5,1975.5C 876.167,1959.83 860.167,1943.83 844.5,1927.5C 844.5,1745.83 844.5,1564.17 844.5,1382.5 Z"/></g>
<g><path style="opacity:0.998" fill="#4d4cd9" d="M 1961.5,1414.5 C 1961.5,1596.17 1961.5,1777.83 1961.5,1959.5C 1933.5,1988.17 1905.17,2016.5 1876.5,2044.5C 1876.5,1862.83 1876.5,1681.17 1876.5,1499.5C 1904.5,1470.83 1932.83,1442.5 1961.5,1414.5 Z"/></g>
<g><path style="opacity:0.998" fill="#3e7bf1" d="M 892.5,1430.5 C 901.167,1438.5 909.5,1446.83 917.5,1455.5C 917.5,1637.17 917.5,1818.83 917.5,2000.5C 908.833,1992.5 900.5,1984.17 892.5,1975.5C 892.5,1793.83 892.5,1612.17 892.5,1430.5 Z"/></g>
<g><path style="opacity:0.998" fill="#3f78f0" d="M 917.5,1455.5 C 942.167,1479.5 966.5,1503.83 990.5,1528.5C 990.5,1710.17 990.5,1891.83 990.5,2073.5C 965.833,2049.5 941.5,2025.17 917.5,2000.5C 917.5,1818.83 917.5,1637.17 917.5,1455.5 Z"/></g>
<g><path style="opacity:0.998" fill="#4c4fdb" d="M 1876.5,1499.5 C 1876.5,1681.17 1876.5,1862.83 1876.5,2044.5C 1825.17,2096.5 1773.5,2148.17 1721.5,2199.5C 1721.5,2017.83 1721.5,1836.17 1721.5,1654.5C 1772.83,1602.5 1824.5,1550.83 1876.5,1499.5 Z"/></g>
<g><path style="opacity:0.998" fill="#4074ee" d="M 990.5,1528.5 C 1010.83,1548.17 1030.83,1568.17 1050.5,1588.5C 1050.5,1770.17 1050.5,1951.83 1050.5,2133.5C 1030.17,2113.83 1010.17,2093.83 990.5,2073.5C 990.5,1891.83 990.5,1710.17 990.5,1528.5 Z"/></g>
<g><path style="opacity:0.998" fill="#4171ec" d="M 1050.5,1588.5 C 1064.5,1601.83 1078.17,1615.5 1091.5,1629.5C 1091.5,1811.17 1091.5,1992.83 1091.5,2174.5C 1077.5,2161.17 1063.83,2147.5 1050.5,2133.5C 1050.5,1951.83 1050.5,1770.17 1050.5,1588.5 Z"/></g>
<g><path style="opacity:0.998" fill="#436dea" d="M 1091.5,1629.5 C 1124.5,1661.83 1157.17,1694.5 1189.5,1727.5C 1189.5,1909.17 1189.5,2090.83 1189.5,2272.5C 1156.5,2240.17 1123.83,2207.5 1091.5,2174.5C 1091.5,1992.83 1091.5,1811.17 1091.5,1629.5 Z"/></g>
<g><path style="opacity:0.998" fill="#4b53de" d="M 1721.5,1654.5 C 1721.5,1836.17 1721.5,2017.83 1721.5,2199.5C 1650.17,2271.5 1578.5,2343.17 1506.5,2414.5C 1506.5,2232.83 1506.5,2051.17 1506.5,1869.5C 1577.83,1797.5 1649.5,1725.83 1721.5,1654.5 Z"/></g>
<g><path style="opacity:0.998" fill="#4469e9" d="M 1189.5,1727.5 C 1197.17,1734.5 1204.5,1741.83 1211.5,1749.5C 1211.5,1931.17 1211.5,2112.83 1211.5,2294.5C 1203.83,2287.5 1196.5,2280.17 1189.5,2272.5C 1189.5,2090.83 1189.5,1909.17 1189.5,1727.5 Z"/></g>
<g><path style="opacity:0.998" fill="#4567e8" d="M 1211.5,1749.5 C 1226.83,1764.17 1241.83,1779.17 1256.5,1794.5C 1256.5,1976.17 1256.5,2157.83 1256.5,2339.5C 1241.17,2324.83 1226.17,2309.83 1211.5,2294.5C 1211.5,2112.83 1211.5,1931.17 1211.5,1749.5 Z"/></g>
<g><path style="opacity:0.998" fill="#4564e6" d="M 1256.5,1794.5 C 1273.5,1810.83 1290.17,1827.5 1306.5,1844.5C 1306.5,2026.17 1306.5,2207.83 1306.5,2389.5C 1289.5,2373.17 1272.83,2356.5 1256.5,2339.5C 1256.5,2157.83 1256.5,1976.17 1256.5,1794.5 Z"/></g>
<g><path style="opacity:0.998" fill="#4760e4" d="M 1306.5,1844.5 C 1339.5,1876.83 1372.17,1909.5 1404.5,1942.5C 1404.5,2124.17 1404.5,2305.83 1404.5,2487.5C 1371.5,2455.17 1338.83,2422.5 1306.5,2389.5C 1306.5,2207.83 1306.5,2026.17 1306.5,1844.5 Z"/></g>
<g><path style="opacity:0.998" fill="#4a57e0" d="M 1506.5,1869.5 C 1506.5,2051.17 1506.5,2232.83 1506.5,2414.5C 1502.5,2419.17 1498.17,2423.5 1493.5,2427.5C 1493.5,2245.83 1493.5,2064.17 1493.5,1882.5C 1497.5,1877.83 1501.83,1873.5 1506.5,1869.5 Z"/></g>
<g><path style="opacity:0.998" fill="#495ae1" d="M 1493.5,1882.5 C 1493.5,2064.17 1493.5,2245.83 1493.5,2427.5C 1468.87,2452.63 1444.03,2477.63 1419,2502.5C 1413.96,2497.63 1409.13,2492.63 1404.5,2487.5C 1404.5,2305.83 1404.5,2124.17 1404.5,1942.5C 1409.46,1946.96 1414.3,1951.63 1419,1956.5C 1443.7,1931.63 1468.53,1906.97 1493.5,1882.5 Z"/></g>
</svg>
